@startuml
'https://plantuml.com/state-diagram

[*] -->Dataset
Dataset -> Series : startSeries
Series --> CheckSeries: startSeriesKey
CheckSeries --> RightSeries: rightSeries
CheckSeries --> Dataset: wrongSeries
RightSeries --> Dataset: endSeries

RightSeries --> GetAttributes: startAttributes
GetAttributes --> RightSeries: findPeriod
RightSeries --> GetObs: startObs
GetObs --> RightSeries: endObs

@enduml